<mxfile host="Electron" modified="2024-04-18T10:04:54.261Z" agent="Mozilla/5.0 (Windows NT 10.0; Win64; x64) AppleWebKit/537.36 (KHTML, like Gecko) draw.io/22.1.2 Chrome/114.0.5735.289 Electron/25.9.4 Safari/537.36" etag="sOgzFdIjRNKFYNmLZYWH" version="22.1.2" type="device">
  <diagram name="第 1 页" id="p7DV3OgJQpJdaAJJsAqJ">
    <mxGraphModel dx="1195" dy="697" grid="1" gridSize="10" guides="1" tooltips="1" connect="1" arrows="1" fold="1" page="1" pageScale="1" pageWidth="827" pageHeight="1169" math="0" shadow="0">
      <root>
        <mxCell id="0" />
        <mxCell id="1" parent="0" />
        <mxCell id="HhEYdVZQ0LtMBUtDXg6y-177" value="" style="edgeStyle=orthogonalEdgeStyle;rounded=0;orthogonalLoop=1;jettySize=auto;html=1;fontFamily=Helvetica;fontSize=12;fontColor=default;startSize=0;entryX=0;entryY=0.5;entryDx=0;entryDy=0;" edge="1" parent="1" source="HhEYdVZQ0LtMBUtDXg6y-2" target="HhEYdVZQ0LtMBUtDXg6y-141">
          <mxGeometry relative="1" as="geometry" />
        </mxCell>
        <mxCell id="HhEYdVZQ0LtMBUtDXg6y-178" value="1v1" style="edgeLabel;html=1;align=center;verticalAlign=middle;resizable=0;points=[];fontSize=12;fontFamily=Helvetica;fontColor=default;" vertex="1" connectable="0" parent="HhEYdVZQ0LtMBUtDXg6y-177">
          <mxGeometry x="0.0556" y="-1" relative="1" as="geometry">
            <mxPoint as="offset" />
          </mxGeometry>
        </mxCell>
        <mxCell id="HhEYdVZQ0LtMBUtDXg6y-2" value="雇员表" style="shape=table;startSize=30;container=1;collapsible=1;childLayout=tableLayout;fixedRows=1;rowLines=0;fontStyle=1;align=center;resizeLast=1;html=1;fontSize=14;fillColor=#dae8fc;strokeColor=#6c8ebf;" vertex="1" parent="1">
          <mxGeometry x="60" y="350" width="180" height="150" as="geometry" />
        </mxCell>
        <mxCell id="HhEYdVZQ0LtMBUtDXg6y-135" style="shape=tableRow;horizontal=0;startSize=0;swimlaneHead=0;swimlaneBody=0;fillColor=none;collapsible=0;dropTarget=0;points=[[0,0.5],[1,0.5]];portConstraint=eastwest;top=0;left=0;right=0;bottom=1;fontSize=14;strokeColor=#6C8EBF;" vertex="1" parent="HhEYdVZQ0LtMBUtDXg6y-2">
          <mxGeometry y="30" width="180" height="30" as="geometry" />
        </mxCell>
        <mxCell id="HhEYdVZQ0LtMBUtDXg6y-136" value="编号" style="shape=partialRectangle;connectable=0;fillColor=none;top=0;left=0;bottom=0;right=0;fontStyle=1;overflow=hidden;whiteSpace=wrap;html=1;fontSize=14;strokeColor=#6C8EBF;" vertex="1" parent="HhEYdVZQ0LtMBUtDXg6y-135">
          <mxGeometry width="40" height="30" as="geometry">
            <mxRectangle width="40" height="30" as="alternateBounds" />
          </mxGeometry>
        </mxCell>
        <mxCell id="HhEYdVZQ0LtMBUtDXg6y-137" value="employee_number" style="shape=partialRectangle;connectable=0;fillColor=none;top=0;left=0;bottom=0;right=0;align=left;spacingLeft=6;fontStyle=5;overflow=hidden;whiteSpace=wrap;html=1;fontSize=14;strokeColor=#6C8EBF;" vertex="1" parent="HhEYdVZQ0LtMBUtDXg6y-135">
          <mxGeometry x="40" width="140" height="30" as="geometry">
            <mxRectangle width="140" height="30" as="alternateBounds" />
          </mxGeometry>
        </mxCell>
        <mxCell id="HhEYdVZQ0LtMBUtDXg6y-132" style="shape=tableRow;horizontal=0;startSize=0;swimlaneHead=0;swimlaneBody=0;fillColor=none;collapsible=0;dropTarget=0;points=[[0,0.5],[1,0.5]];portConstraint=eastwest;top=0;left=0;right=0;bottom=1;fontSize=14;strokeColor=#6C8EBF;" vertex="1" parent="HhEYdVZQ0LtMBUtDXg6y-2">
          <mxGeometry y="60" width="180" height="30" as="geometry" />
        </mxCell>
        <mxCell id="HhEYdVZQ0LtMBUtDXg6y-133" value="姓名" style="shape=partialRectangle;connectable=0;fillColor=none;top=0;left=0;bottom=0;right=0;fontStyle=1;overflow=hidden;whiteSpace=wrap;html=1;fontSize=14;strokeColor=#6C8EBF;" vertex="1" parent="HhEYdVZQ0LtMBUtDXg6y-132">
          <mxGeometry width="40" height="30" as="geometry">
            <mxRectangle width="40" height="30" as="alternateBounds" />
          </mxGeometry>
        </mxCell>
        <mxCell id="HhEYdVZQ0LtMBUtDXg6y-134" value="employee_name" style="shape=partialRectangle;connectable=0;fillColor=none;top=0;left=0;bottom=0;right=0;align=left;spacingLeft=6;fontStyle=5;overflow=hidden;whiteSpace=wrap;html=1;fontSize=14;strokeColor=#6C8EBF;" vertex="1" parent="HhEYdVZQ0LtMBUtDXg6y-132">
          <mxGeometry x="40" width="140" height="30" as="geometry">
            <mxRectangle width="140" height="30" as="alternateBounds" />
          </mxGeometry>
        </mxCell>
        <mxCell id="HhEYdVZQ0LtMBUtDXg6y-129" style="shape=tableRow;horizontal=0;startSize=0;swimlaneHead=0;swimlaneBody=0;fillColor=none;collapsible=0;dropTarget=0;points=[[0,0.5],[1,0.5]];portConstraint=eastwest;top=0;left=0;right=0;bottom=1;fontSize=14;strokeColor=#6C8EBF;" vertex="1" parent="HhEYdVZQ0LtMBUtDXg6y-2">
          <mxGeometry y="90" width="180" height="30" as="geometry" />
        </mxCell>
        <mxCell id="HhEYdVZQ0LtMBUtDXg6y-130" value="级别" style="shape=partialRectangle;connectable=0;fillColor=none;top=0;left=0;bottom=0;right=0;fontStyle=1;overflow=hidden;whiteSpace=wrap;html=1;fontSize=14;strokeColor=#6C8EBF;" vertex="1" parent="HhEYdVZQ0LtMBUtDXg6y-129">
          <mxGeometry width="40" height="30" as="geometry">
            <mxRectangle width="40" height="30" as="alternateBounds" />
          </mxGeometry>
        </mxCell>
        <mxCell id="HhEYdVZQ0LtMBUtDXg6y-131" value="employee_level" style="shape=partialRectangle;connectable=0;fillColor=none;top=0;left=0;bottom=0;right=0;align=left;spacingLeft=6;fontStyle=5;overflow=hidden;whiteSpace=wrap;html=1;fontSize=14;strokeColor=#6C8EBF;" vertex="1" parent="HhEYdVZQ0LtMBUtDXg6y-129">
          <mxGeometry x="40" width="140" height="30" as="geometry">
            <mxRectangle width="140" height="30" as="alternateBounds" />
          </mxGeometry>
        </mxCell>
        <mxCell id="HhEYdVZQ0LtMBUtDXg6y-126" style="shape=tableRow;horizontal=0;startSize=0;swimlaneHead=0;swimlaneBody=0;fillColor=none;collapsible=0;dropTarget=0;points=[[0,0.5],[1,0.5]];portConstraint=eastwest;top=0;left=0;right=0;bottom=1;fontSize=14;strokeColor=#6C8EBF;" vertex="1" parent="HhEYdVZQ0LtMBUtDXg6y-2">
          <mxGeometry y="120" width="180" height="30" as="geometry" />
        </mxCell>
        <mxCell id="HhEYdVZQ0LtMBUtDXg6y-127" value="称呼" style="shape=partialRectangle;connectable=0;fillColor=none;top=0;left=0;bottom=0;right=0;fontStyle=1;overflow=hidden;whiteSpace=wrap;html=1;fontSize=14;strokeColor=#6C8EBF;" vertex="1" parent="HhEYdVZQ0LtMBUtDXg6y-126">
          <mxGeometry width="40" height="30" as="geometry">
            <mxRectangle width="40" height="30" as="alternateBounds" />
          </mxGeometry>
        </mxCell>
        <mxCell id="HhEYdVZQ0LtMBUtDXg6y-128" value="employee_title" style="shape=partialRectangle;connectable=0;fillColor=none;top=0;left=0;bottom=0;right=0;align=left;spacingLeft=6;fontStyle=5;overflow=hidden;whiteSpace=wrap;html=1;fontSize=14;strokeColor=#6C8EBF;" vertex="1" parent="HhEYdVZQ0LtMBUtDXg6y-126">
          <mxGeometry x="40" width="140" height="30" as="geometry">
            <mxRectangle width="140" height="30" as="alternateBounds" />
          </mxGeometry>
        </mxCell>
        <mxCell id="HhEYdVZQ0LtMBUtDXg6y-15" value="薪资表" style="shape=table;startSize=30;container=1;collapsible=1;childLayout=tableLayout;fixedRows=1;rowLines=0;fontStyle=1;align=center;resizeLast=1;html=1;fontSize=14;fillColor=#d5e8d4;strokeColor=#82b366;" vertex="1" parent="1">
          <mxGeometry x="450" y="350" width="180" height="150" as="geometry" />
        </mxCell>
        <mxCell id="HhEYdVZQ0LtMBUtDXg6y-144" style="shape=tableRow;horizontal=0;startSize=0;swimlaneHead=0;swimlaneBody=0;fillColor=none;collapsible=0;dropTarget=0;points=[[0,0.5],[1,0.5]];portConstraint=eastwest;top=0;left=0;right=0;bottom=1;fontSize=14;" vertex="1" parent="HhEYdVZQ0LtMBUtDXg6y-15">
          <mxGeometry y="30" width="180" height="30" as="geometry" />
        </mxCell>
        <mxCell id="HhEYdVZQ0LtMBUtDXg6y-145" value="编号" style="shape=partialRectangle;connectable=0;fillColor=none;top=0;left=0;bottom=0;right=0;fontStyle=1;overflow=hidden;whiteSpace=wrap;html=1;fontSize=14;" vertex="1" parent="HhEYdVZQ0LtMBUtDXg6y-144">
          <mxGeometry width="40" height="30" as="geometry">
            <mxRectangle width="40" height="30" as="alternateBounds" />
          </mxGeometry>
        </mxCell>
        <mxCell id="HhEYdVZQ0LtMBUtDXg6y-146" value="employee_number" style="shape=partialRectangle;connectable=0;fillColor=none;top=0;left=0;bottom=0;right=0;align=left;spacingLeft=6;fontStyle=5;overflow=hidden;whiteSpace=wrap;html=1;fontSize=14;" vertex="1" parent="HhEYdVZQ0LtMBUtDXg6y-144">
          <mxGeometry x="40" width="140" height="30" as="geometry">
            <mxRectangle width="140" height="30" as="alternateBounds" />
          </mxGeometry>
        </mxCell>
        <mxCell id="HhEYdVZQ0LtMBUtDXg6y-141" style="shape=tableRow;horizontal=0;startSize=0;swimlaneHead=0;swimlaneBody=0;fillColor=none;collapsible=0;dropTarget=0;points=[[0,0.5],[1,0.5]];portConstraint=eastwest;top=0;left=0;right=0;bottom=1;fontSize=14;strokeColor=#82B366;" vertex="1" parent="HhEYdVZQ0LtMBUtDXg6y-15">
          <mxGeometry y="60" width="180" height="30" as="geometry" />
        </mxCell>
        <mxCell id="HhEYdVZQ0LtMBUtDXg6y-142" value="总薪" style="shape=partialRectangle;connectable=0;fillColor=none;top=0;left=0;bottom=0;right=0;fontStyle=1;overflow=hidden;whiteSpace=wrap;html=1;fontSize=14;strokeColor=#82B366;" vertex="1" parent="HhEYdVZQ0LtMBUtDXg6y-141">
          <mxGeometry width="40" height="30" as="geometry">
            <mxRectangle width="40" height="30" as="alternateBounds" />
          </mxGeometry>
        </mxCell>
        <mxCell id="HhEYdVZQ0LtMBUtDXg6y-143" value="salary_total_amount" style="shape=partialRectangle;connectable=0;fillColor=none;top=0;left=0;bottom=0;right=0;align=left;spacingLeft=6;fontStyle=5;overflow=hidden;whiteSpace=wrap;html=1;fontSize=14;strokeColor=#82B366;" vertex="1" parent="HhEYdVZQ0LtMBUtDXg6y-141">
          <mxGeometry x="40" width="140" height="30" as="geometry">
            <mxRectangle width="140" height="30" as="alternateBounds" />
          </mxGeometry>
        </mxCell>
        <mxCell id="HhEYdVZQ0LtMBUtDXg6y-138" style="shape=tableRow;horizontal=0;startSize=0;swimlaneHead=0;swimlaneBody=0;fillColor=none;collapsible=0;dropTarget=0;points=[[0,0.5],[1,0.5]];portConstraint=eastwest;top=0;left=0;right=0;bottom=1;fontSize=14;strokeColor=#82B366;" vertex="1" parent="HhEYdVZQ0LtMBUtDXg6y-15">
          <mxGeometry y="90" width="180" height="30" as="geometry" />
        </mxCell>
        <mxCell id="HhEYdVZQ0LtMBUtDXg6y-139" value="基础" style="shape=partialRectangle;connectable=0;fillColor=none;top=0;left=0;bottom=0;right=0;fontStyle=1;overflow=hidden;whiteSpace=wrap;html=1;fontSize=14;strokeColor=#82B366;" vertex="1" parent="HhEYdVZQ0LtMBUtDXg6y-138">
          <mxGeometry width="40" height="30" as="geometry">
            <mxRectangle width="40" height="30" as="alternateBounds" />
          </mxGeometry>
        </mxCell>
        <mxCell id="HhEYdVZQ0LtMBUtDXg6y-140" value="salary_base_amount" style="shape=partialRectangle;connectable=0;fillColor=none;top=0;left=0;bottom=0;right=0;align=left;spacingLeft=6;fontStyle=5;overflow=hidden;whiteSpace=wrap;html=1;fontSize=14;strokeColor=#82B366;" vertex="1" parent="HhEYdVZQ0LtMBUtDXg6y-138">
          <mxGeometry x="40" width="140" height="30" as="geometry">
            <mxRectangle width="140" height="30" as="alternateBounds" />
          </mxGeometry>
        </mxCell>
        <mxCell id="HhEYdVZQ0LtMBUtDXg6y-16" value="" style="shape=tableRow;horizontal=0;startSize=0;swimlaneHead=0;swimlaneBody=0;fillColor=none;collapsible=0;dropTarget=0;points=[[0,0.5],[1,0.5]];portConstraint=eastwest;top=0;left=0;right=0;bottom=1;fontSize=14;strokeColor=#82B366;" vertex="1" parent="HhEYdVZQ0LtMBUtDXg6y-15">
          <mxGeometry y="120" width="180" height="30" as="geometry" />
        </mxCell>
        <mxCell id="HhEYdVZQ0LtMBUtDXg6y-17" value="绩效" style="shape=partialRectangle;connectable=0;fillColor=none;top=0;left=0;bottom=0;right=0;fontStyle=1;overflow=hidden;whiteSpace=wrap;html=1;fontSize=14;strokeColor=#82B366;" vertex="1" parent="HhEYdVZQ0LtMBUtDXg6y-16">
          <mxGeometry width="40" height="30" as="geometry">
            <mxRectangle width="40" height="30" as="alternateBounds" />
          </mxGeometry>
        </mxCell>
        <mxCell id="HhEYdVZQ0LtMBUtDXg6y-18" value="salary_merit_amount" style="shape=partialRectangle;connectable=0;fillColor=none;top=0;left=0;bottom=0;right=0;align=left;spacingLeft=6;fontStyle=5;overflow=hidden;whiteSpace=wrap;html=1;fontSize=14;strokeColor=#82B366;" vertex="1" parent="HhEYdVZQ0LtMBUtDXg6y-16">
          <mxGeometry x="40" width="140" height="30" as="geometry">
            <mxRectangle width="140" height="30" as="alternateBounds" />
          </mxGeometry>
        </mxCell>
        <mxCell id="HhEYdVZQ0LtMBUtDXg6y-28" value="调薪记录表" style="shape=table;startSize=30;container=1;collapsible=1;childLayout=tableLayout;fixedRows=1;rowLines=0;fontStyle=1;align=center;resizeLast=1;html=1;fontSize=14;fillColor=#f8cecc;strokeColor=#b85450;" vertex="1" parent="1">
          <mxGeometry x="420" y="610" width="210" height="180" as="geometry" />
        </mxCell>
        <mxCell id="HhEYdVZQ0LtMBUtDXg6y-168" style="shape=tableRow;horizontal=0;startSize=0;swimlaneHead=0;swimlaneBody=0;fillColor=none;collapsible=0;dropTarget=0;points=[[0,0.5],[1,0.5]];portConstraint=eastwest;top=0;left=0;right=0;bottom=1;fontSize=14;" vertex="1" parent="HhEYdVZQ0LtMBUtDXg6y-28">
          <mxGeometry y="30" width="210" height="30" as="geometry" />
        </mxCell>
        <mxCell id="HhEYdVZQ0LtMBUtDXg6y-169" value="编号" style="shape=partialRectangle;connectable=0;fillColor=none;top=0;left=0;bottom=0;right=0;fontStyle=1;overflow=hidden;whiteSpace=wrap;html=1;fontSize=14;" vertex="1" parent="HhEYdVZQ0LtMBUtDXg6y-168">
          <mxGeometry width="60" height="30" as="geometry">
            <mxRectangle width="60" height="30" as="alternateBounds" />
          </mxGeometry>
        </mxCell>
        <mxCell id="HhEYdVZQ0LtMBUtDXg6y-170" value="employee_number" style="shape=partialRectangle;connectable=0;fillColor=none;top=0;left=0;bottom=0;right=0;align=left;spacingLeft=6;fontStyle=5;overflow=hidden;whiteSpace=wrap;html=1;fontSize=14;" vertex="1" parent="HhEYdVZQ0LtMBUtDXg6y-168">
          <mxGeometry x="60" width="150" height="30" as="geometry">
            <mxRectangle width="150" height="30" as="alternateBounds" />
          </mxGeometry>
        </mxCell>
        <mxCell id="HhEYdVZQ0LtMBUtDXg6y-165" style="shape=tableRow;horizontal=0;startSize=0;swimlaneHead=0;swimlaneBody=0;fillColor=none;collapsible=0;dropTarget=0;points=[[0,0.5],[1,0.5]];portConstraint=eastwest;top=0;left=0;right=0;bottom=1;fontSize=14;strokeColor=#B85450;" vertex="1" parent="HhEYdVZQ0LtMBUtDXg6y-28">
          <mxGeometry y="60" width="210" height="30" as="geometry" />
        </mxCell>
        <mxCell id="HhEYdVZQ0LtMBUtDXg6y-166" value="单号" style="shape=partialRectangle;connectable=0;fillColor=none;top=0;left=0;bottom=0;right=0;fontStyle=1;overflow=hidden;whiteSpace=wrap;html=1;fontSize=14;strokeColor=#B85450;" vertex="1" parent="HhEYdVZQ0LtMBUtDXg6y-165">
          <mxGeometry width="60" height="30" as="geometry">
            <mxRectangle width="60" height="30" as="alternateBounds" />
          </mxGeometry>
        </mxCell>
        <mxCell id="HhEYdVZQ0LtMBUtDXg6y-167" value="adjust_order_id" style="shape=partialRectangle;connectable=0;fillColor=none;top=0;left=0;bottom=0;right=0;align=left;spacingLeft=6;fontStyle=5;overflow=hidden;whiteSpace=wrap;html=1;fontSize=14;strokeColor=#B85450;" vertex="1" parent="HhEYdVZQ0LtMBUtDXg6y-165">
          <mxGeometry x="60" width="150" height="30" as="geometry">
            <mxRectangle width="150" height="30" as="alternateBounds" />
          </mxGeometry>
        </mxCell>
        <mxCell id="HhEYdVZQ0LtMBUtDXg6y-162" style="shape=tableRow;horizontal=0;startSize=0;swimlaneHead=0;swimlaneBody=0;fillColor=none;collapsible=0;dropTarget=0;points=[[0,0.5],[1,0.5]];portConstraint=eastwest;top=0;left=0;right=0;bottom=1;fontSize=14;strokeColor=#B85450;" vertex="1" parent="HhEYdVZQ0LtMBUtDXg6y-28">
          <mxGeometry y="90" width="210" height="30" as="geometry" />
        </mxCell>
        <mxCell id="HhEYdVZQ0LtMBUtDXg6y-163" value="总薪调幅" style="shape=partialRectangle;connectable=0;fillColor=none;top=0;left=0;bottom=0;right=0;fontStyle=1;overflow=hidden;whiteSpace=wrap;html=1;fontSize=14;strokeColor=#B85450;" vertex="1" parent="HhEYdVZQ0LtMBUtDXg6y-162">
          <mxGeometry width="60" height="30" as="geometry">
            <mxRectangle width="60" height="30" as="alternateBounds" />
          </mxGeometry>
        </mxCell>
        <mxCell id="HhEYdVZQ0LtMBUtDXg6y-164" value="adjust_total_amount" style="shape=partialRectangle;connectable=0;fillColor=none;top=0;left=0;bottom=0;right=0;align=left;spacingLeft=6;fontStyle=5;overflow=hidden;whiteSpace=wrap;html=1;fontSize=14;strokeColor=#B85450;" vertex="1" parent="HhEYdVZQ0LtMBUtDXg6y-162">
          <mxGeometry x="60" width="150" height="30" as="geometry">
            <mxRectangle width="150" height="30" as="alternateBounds" />
          </mxGeometry>
        </mxCell>
        <mxCell id="HhEYdVZQ0LtMBUtDXg6y-159" style="shape=tableRow;horizontal=0;startSize=0;swimlaneHead=0;swimlaneBody=0;fillColor=none;collapsible=0;dropTarget=0;points=[[0,0.5],[1,0.5]];portConstraint=eastwest;top=0;left=0;right=0;bottom=1;fontSize=14;strokeColor=#B85450;" vertex="1" parent="HhEYdVZQ0LtMBUtDXg6y-28">
          <mxGeometry y="120" width="210" height="30" as="geometry" />
        </mxCell>
        <mxCell id="HhEYdVZQ0LtMBUtDXg6y-160" value="基础调幅" style="shape=partialRectangle;connectable=0;fillColor=none;top=0;left=0;bottom=0;right=0;fontStyle=1;overflow=hidden;whiteSpace=wrap;html=1;fontSize=14;strokeColor=#B85450;" vertex="1" parent="HhEYdVZQ0LtMBUtDXg6y-159">
          <mxGeometry width="60" height="30" as="geometry">
            <mxRectangle width="60" height="30" as="alternateBounds" />
          </mxGeometry>
        </mxCell>
        <mxCell id="HhEYdVZQ0LtMBUtDXg6y-161" value="adjust_base_amount" style="shape=partialRectangle;connectable=0;fillColor=none;top=0;left=0;bottom=0;right=0;align=left;spacingLeft=6;fontStyle=5;overflow=hidden;whiteSpace=wrap;html=1;fontSize=14;strokeColor=#B85450;" vertex="1" parent="HhEYdVZQ0LtMBUtDXg6y-159">
          <mxGeometry x="60" width="150" height="30" as="geometry">
            <mxRectangle width="150" height="30" as="alternateBounds" />
          </mxGeometry>
        </mxCell>
        <mxCell id="HhEYdVZQ0LtMBUtDXg6y-29" value="" style="shape=tableRow;horizontal=0;startSize=0;swimlaneHead=0;swimlaneBody=0;fillColor=none;collapsible=0;dropTarget=0;points=[[0,0.5],[1,0.5]];portConstraint=eastwest;top=0;left=0;right=0;bottom=1;fontSize=14;strokeColor=#B85450;" vertex="1" parent="HhEYdVZQ0LtMBUtDXg6y-28">
          <mxGeometry y="150" width="210" height="30" as="geometry" />
        </mxCell>
        <mxCell id="HhEYdVZQ0LtMBUtDXg6y-30" value="绩效调幅" style="shape=partialRectangle;connectable=0;fillColor=none;top=0;left=0;bottom=0;right=0;fontStyle=1;overflow=hidden;whiteSpace=wrap;html=1;fontSize=14;strokeColor=#B85450;" vertex="1" parent="HhEYdVZQ0LtMBUtDXg6y-29">
          <mxGeometry width="60" height="30" as="geometry">
            <mxRectangle width="60" height="30" as="alternateBounds" />
          </mxGeometry>
        </mxCell>
        <mxCell id="HhEYdVZQ0LtMBUtDXg6y-31" value="adjust_merit_amount" style="shape=partialRectangle;connectable=0;fillColor=none;top=0;left=0;bottom=0;right=0;align=left;spacingLeft=6;fontStyle=5;overflow=hidden;whiteSpace=wrap;html=1;fontSize=14;strokeColor=#B85450;" vertex="1" parent="HhEYdVZQ0LtMBUtDXg6y-29">
          <mxGeometry x="60" width="150" height="30" as="geometry">
            <mxRectangle width="150" height="30" as="alternateBounds" />
          </mxGeometry>
        </mxCell>
        <mxCell id="HhEYdVZQ0LtMBUtDXg6y-171" value="" style="shape=curlyBracket;whiteSpace=wrap;html=1;rounded=1;flipH=1;labelPosition=right;verticalLabelPosition=middle;align=left;verticalAlign=middle;strokeColor=default;strokeWidth=3;fontFamily=Helvetica;fontSize=12;fontColor=default;startSize=0;fillColor=none;" vertex="1" parent="1">
          <mxGeometry x="640" y="350" width="20" height="440" as="geometry" />
        </mxCell>
        <mxCell id="HhEYdVZQ0LtMBUtDXg6y-172" value="&lt;font style=&quot;font-size: 14px;&quot;&gt;调薪需要再一个事务下进行。聚合对象&lt;/font&gt;" style="text;html=1;align=center;verticalAlign=middle;resizable=0;points=[];autosize=1;strokeColor=none;fillColor=none;fontSize=12;fontFamily=Helvetica;fontColor=default;" vertex="1" parent="1">
          <mxGeometry x="660" y="555" width="260" height="30" as="geometry" />
        </mxCell>
        <mxCell id="HhEYdVZQ0LtMBUtDXg6y-175" value="" style="rounded=1;whiteSpace=wrap;html=1;strokeColor=default;strokeWidth=2;align=center;verticalAlign=middle;fontFamily=Helvetica;fontSize=12;fontColor=default;startSize=0;fillColor=none;dashed=1;" vertex="1" parent="1">
          <mxGeometry x="42.5" y="440" width="215" height="70" as="geometry" />
        </mxCell>
        <mxCell id="HhEYdVZQ0LtMBUtDXg6y-176" value="&lt;font style=&quot;font-size: 14px;&quot;&gt;加密字段&lt;/font&gt;" style="text;html=1;align=center;verticalAlign=middle;resizable=0;points=[];autosize=1;strokeColor=none;fillColor=none;fontSize=12;fontFamily=Helvetica;fontColor=default;" vertex="1" parent="1">
          <mxGeometry x="260" y="448" width="80" height="30" as="geometry" />
        </mxCell>
        <mxCell id="HhEYdVZQ0LtMBUtDXg6y-179" style="edgeStyle=orthogonalEdgeStyle;rounded=0;orthogonalLoop=1;jettySize=auto;html=1;entryX=0.575;entryY=-0.03;entryDx=0;entryDy=0;entryPerimeter=0;fontFamily=Helvetica;fontSize=12;fontColor=default;startSize=0;" edge="1" parent="1" source="HhEYdVZQ0LtMBUtDXg6y-15" target="HhEYdVZQ0LtMBUtDXg6y-28">
          <mxGeometry relative="1" as="geometry" />
        </mxCell>
        <mxCell id="HhEYdVZQ0LtMBUtDXg6y-182" value="1 v n" style="edgeLabel;html=1;align=center;verticalAlign=middle;resizable=0;points=[];fontSize=12;fontFamily=Helvetica;fontColor=default;" vertex="1" connectable="0" parent="HhEYdVZQ0LtMBUtDXg6y-179">
          <mxGeometry x="-0.0104" y="2" relative="1" as="geometry">
            <mxPoint as="offset" />
          </mxGeometry>
        </mxCell>
        <mxCell id="HhEYdVZQ0LtMBUtDXg6y-183" value="值对象" style="text;html=1;align=center;verticalAlign=middle;resizable=0;points=[];autosize=1;strokeColor=none;fillColor=none;fontSize=12;fontFamily=Helvetica;fontColor=default;" vertex="1" parent="1">
          <mxGeometry x="110" y="508" width="60" height="30" as="geometry" />
        </mxCell>
      </root>
    </mxGraphModel>
  </diagram>
</mxfile>
